# xmcd CD database file
#
# Track frame offsets:
#	150
#	11544
#	19442
#	31521
#	39149
#	49303
#	58893
#	72647
#	84374
#	93968
#	104705
#	113618
#	123680
#	135488
#
# Disc length: 1897 seconds
#
# Revision: 1
# Processed by: cddbd v1.5.2PL0 Copyright (c) Steve Scherf et al.
# Submitted via: CDex 1.51
#
DISCID=b907670e
DTITLE=Johnny Cash - Big River
DYEAR=1900
DGENRE=Country
TTITLE0=Big River
TTITLE1=I Can't Help It (If I'm Still In Love With You)
TTITLE2=You're The Nearest thing To Heaven
TTITLE3=Come In Stranger
TTITLE4=All Over Again
TTITLE5=What Do I Care?
TTITLE6=Don't Take Your Guns To Town
TTITLE7=I Still Miss Someone
TTITLE8=It's Just About Time
TTITLE9=I Just Thought You'd Like To Know
TTITLE10=Pickin' Time
TTITLE11=Hey Porter
TTITLE12=Sixteen Tons (Live)
TTITLE13=Casey Jones (Live)
EXTD=
EXTT0=
EXTT1=
EXTT2=
EXTT3=
EXTT4=
EXTT5=
EXTT6=
EXTT7=
EXTT8=
EXTT9=
EXTT10=
EXTT11=
EXTT12=
EXTT13=
PLAYORDER=
